# xmcd
#
# Track frame offsets:
#	150
#	15050
#	26597
#
# Disc length: 600 seconds
#
# Revision: 0
# Processed by: cddbd v1.4PL0 Copyright (c) Steve Scherf et al.
# Submitted via: dBpowerAMP V4.0
#
DISCID=10025603
DTITLE=鄭秀文 - 親密關係 EP
DYEAR=1997
DGENRE=
TTITLE0=親密關係 Seson's Mix
TTITLE1=星秀傳說 Star Mix
TTITLE2=親密關係 Karaoke Version
EXTD=
EXTT0=
EXTT1=
EXTT2=
PLAYORDER=
